<?xml version="1.0" encoding="utf-8"?>
<!-- Generator: Adobe Illustrator 21.0.2, SVG Export Plug-In . SVG Version: 6.00 Build 0)  -->
<svg version="1.1" id="图层_1" xmlns="http://www.w3.org/2000/svg" xmlns:xlink="http://www.w3.org/1999/xlink" x="0px" y="0px"
	 viewBox="0 0 300 300" style="enable-background:new 0 0 300 300;" xml:space="preserve">
<g>
	<path d="M221.4,137.1c-4.1,7.4-9.2,13.8-15.2,19c-14.4,12.7-32.2,19.1-53.5,19.1c-21.3,0-39.2-6.4-53.6-19.1
		c-6-5.2-11.1-11.6-15.2-19c4.2-7.4,9.2-13.8,15.2-19.1c14.4-12.7,32.3-19.1,53.6-19.1c21.3,0,39.2,6.4,53.5,19.1
		C212.3,123.3,217.3,129.6,221.4,137.1z M178.1,137.1c0-6.8-2.5-12.7-7.5-17.6c-5-4.9-11-7.3-18-7.3c-3.7,0-7.2,0.7-10.5,2.2l-2.6-6
		c-19.4,3.3-33.6,12.9-42.6,28.6c2.6,4.6,5.8,8.7,9.5,12.3c8.9,8.6,19.9,14,32.9,16.3c-5.6-2.5-10.1-6.3-13.5-11.5
		c-3.4-5.1-5.1-10.8-5.1-17.1c0-3.8,0.7-7.5,2-11.1l6.4,2c-1.2,2.9-1.8,6-1.8,9.1c0,6.9,2.5,12.8,7.5,17.6c5,4.8,11,7.3,18,7.3
		c7,0,13-2.4,18-7.3C175.6,149.8,178.1,144,178.1,137.1z M171.9,137.1c0,5.2-1.9,9.6-5.7,13.3c-3.8,3.7-8.3,5.5-13.6,5.5
		c-5.3,0-9.9-1.8-13.6-5.5c-3.7-3.7-5.6-8.1-5.6-13.3c0-2.3,0.4-4.5,1.2-6.7l19.6,8.9l-9.2-19.5c2.4-1.1,4.9-1.6,7.6-1.6
		c5.3,0,9.8,1.8,13.6,5.5C170,127.5,171.9,131.9,171.9,137.1z M208.4,137.1c-2.6-4.6-5.8-8.7-9.5-12.3c-9-8.7-20-14.1-33.2-16.3
		c5.7,2.5,10.3,6.2,13.8,11.3c3.5,5.2,5.3,11,5.3,17.3c0,6.3-1.7,11.9-5.2,17.1c-3.4,5.1-8,9-13.6,11.5
		C185.3,162.3,199.4,152.8,208.4,137.1z"/>
</g>
</svg>
