<?xml version="1.0" standalone="no"?><!DOCTYPE svg PUBLIC "-//W3C//DTD SVG 1.1//EN" "http://www.w3.org/Graphics/SVG/1.1/DTD/svg11.dtd"><svg t="1484658368871" class="icon" style="" viewBox="0 0 1024 1024" version="1.1" xmlns="http://www.w3.org/2000/svg" p-id="1428" xmlns:xlink="http://www.w3.org/1999/xlink" width="200" height="200"><defs><style type="text/css"></style></defs><path d="M262.056438 15.842827c0 18.290575-0.001023 36.077683 0 53.864792 0 8.087189 0.002047 8.089235 8.136308 8.089235 202.64328 0 405.28656 0 607.92984 0 2.211365 0 4.421706 0 6.701632 0 0 289.847387 0 578.956971 0 868.169909-248.983701 0-497.693156 0-746.834446 0 0-248.231571 0-496.036423 0-744.137011-20.911262 0-41.389666 0-62.114686 0 0 268.917706 0 537.628704 0 806.666136 290.75813 0 581.142753 0 871.370811 0 0-331.238077 0-662.120043 0-992.652038C718.66692 15.842827 490.488057 15.842827 262.056438 15.842827z" p-id="1429"></path><path d="M357.768313 429.900144c-0.073678 0.976234-0.090051 1.968841-0.288572 2.920516-2.425236 11.619642-5.019317 23.206538-7.278777 34.858926-1.684362 8.68787-2.759857 17.494443-4.441149 26.183336-2.285043 11.812023-4.981455 23.544229-7.334036 35.343973-2.701528 13.546527-5.301749 27.115568-7.792477 40.703027-2.204202 12.026918-4.118807 24.108071-6.324032 36.134988-0.864694 4.716418-2.339278 9.31925-3.235694 14.031575-1.004887 5.282307-1.671059 10.629081-2.488681 15.984043 129.09724 0 257.485329 0 386.138454 0-0.169869-2.350534-0.093121-4.335748-0.487094-6.223748-2.356674-11.294231-4.992711-22.532179-7.203052-33.854039-2.312672-11.844769-4.15053-23.781636-6.379291-35.643802-2.460028-13.091156-5.130857-26.142403-7.704472-39.21207-0.775666-3.940752-1.49198-7.893784-2.313695-11.824303-1.741667-8.328689-3.650133-16.624632-5.273097-24.976858-1.595334-8.209986-2.836605-16.487509-4.38896-24.706705-1.786693-9.455349-3.593851-18.913768-5.719258-28.296463-0.657986-2.90619-1.6465-6.625908-3.781116-8.117888-3.932566-2.750647-8.828063-4.122901-13.317307-6.079462-16.041348-6.989181-32.058137-14.034645-48.1353-20.941961-4.562922-1.960655-9.296737-3.521197-13.902638-5.247514-8.439206 19.404955-16.471137 37.876656-24.615631 56.605206 13.643742 5.753027 26.813692 11.513218 40.156582 16.839527 6.134721 2.448772 8.665357 6.597255 9.04398 12.973476 0.275269 4.631484 1.396813 9.226129 2.308579 13.804401 1.75497 8.81783 3.705392 17.59575 5.430686 26.418696 1.543146 7.887644 2.786463 15.83464 4.352121 23.717168 2.115174 10.648524 4.411473 21.261233 6.708795 32.268938-79.096453 0-157.356864 0-235.544621 0 1.207501-7.492648 2.193968-14.646582 3.545756-21.731954 1.591241-8.339946 3.643993-16.591887 5.230118-24.932856 1.62501-8.541537 2.837628-17.160845 4.397147-25.716708 1.813299-9.953699 3.686972-19.900236 5.807263-29.791513 0.536212-2.499937 1.489934-5.733585 3.349281-6.944156 3.241834-2.111081 7.346315-2.886747 11.072173-4.266164 10.813277-4.002151 21.618367-8.026814 32.218796-11.965519 0.047072-0.877997 0.168846-1.240247 0.066515-1.520633-6.579859-17.994839-13.137205-35.998889-19.848047-53.945633-0.591471-1.583055-1.567705-2.690272-4.2897-1.612731-9.881045 3.913123-20.057825 7.071046-30.05655 10.695596-12.048407 4.368494-23.952528 9.141194-36.062334 13.32754C360.006284 418.401252 358.526583 419.865603 357.768313 429.900144z" p-id="1430"></path><path d="M511.508813 387.732765c68.350714 0.788969 124.71135-56.167231 124.631532-123.265418-0.083911-70.843488-56.186673-124.862799-124.119879-125.031645-68.583005-0.170892-124.175137 53.989635-124.884288 123.763768C386.442376 331.449901 443.469184 388.426567 511.508813 387.732765zM512.082888 201.521736c32.689517 0.215918 61.621453 27.680433 61.754482 62.49024 0.124843 32.512485-28.795836 63.044872-62.414515 61.284785-33.443693 1.51961-62.257949-28.821419-61.981656-61.695131C449.728748 229.316779 478.501048 201.300702 512.082888 201.521736z" p-id="1431"></path><path d="M230.879368 878.437763c0.00921 5.706979 0.917906 6.627954 6.421246 6.627954 182.885284 0.005117 365.771591 0.005117 548.656875 0 5.500271 0 6.42841-0.934279 6.437619-6.612605 0.025583-16.328897 0.011256-32.657794 0.008186-48.987714-0.001023-6.80601-0.007163-6.810103-6.675026-6.810103-91.279936-0.001023-182.558849-0.001023-273.838785-0.001023-91.606371 0-183.212742 0.039909-274.818089-0.107447-5.058203-0.008186-6.380314 1.551332-6.302543 6.414083C231.03184 845.450465 230.853785 861.945137 230.879368 878.437763z" p-id="1432"></path><path d="M230.870158 753.055125c0.001023 7.100722 0.005117 7.105838 6.92676 7.105838 91.28096 0.001023 182.561919 0.001023 273.841855 0.001023 91.443665 0 182.888354-0.01842 274.332019 0.058328 4.197602 0.004093 6.647397-0.408299 6.547113-5.703909-0.314155-16.650215-0.242524-33.311687-0.032746-49.963948 0.057305-4.596691-1.617847-5.820566-6.030343-5.818519-183.214788 0.088004-366.429577 0.094144-549.643342-0.021489-4.975315-0.00307-6.075369 1.828648-6.019087 6.335289C230.989885 721.048153 230.868111 737.052662 230.870158 753.055125z" p-id="1433"></path></svg>